<svg width="94" height="41" viewBox="0 0 94 41" fill="none" xmlns="http://www.w3.org/2000/svg">
  <path
    d="M8.87658 37.7042C7.3806 37.7042 6.23223 37.4373 5.43768 36.8972C4.63693 36.3572 4.04102 35.7551 3.64374 35.0909H3.14715V37.2697H0V15.4631H3.20923V23.9983H3.70582C3.95411 23.5824 4.28931 23.1851 4.70521 22.8002C5.12111 22.4154 5.67356 22.0988 6.35638 21.8505C7.03919 21.6022 7.8834 21.4781 8.87658 21.4781C10.1615 21.4781 11.3471 21.7884 12.4272 22.4154C13.5073 23.0361 14.3701 23.9424 15.0095 25.128C15.6551 26.3136 15.9778 27.7227 15.9778 29.3615V29.827C15.9778 31.4906 15.6489 32.9059 14.9971 34.0791C14.3453 35.2523 13.4825 36.1523 12.4148 36.7731C11.3409 37.3876 10.1615 37.7042 8.87658 37.7042ZM7.94547 34.8985C9.33593 34.8985 10.4843 34.4515 11.3844 33.5577C12.2906 32.6638 12.7376 31.3851 12.7376 29.7277V29.4484C12.7376 27.8096 12.2907 26.5433 11.3968 25.6494C10.5029 24.7556 9.34834 24.3086 7.93926 24.3086C6.56743 24.3086 5.43147 24.7556 4.5314 25.6494C3.62512 26.5433 3.17819 27.8096 3.17819 29.4484V29.7277C3.17819 31.3913 3.63133 32.6638 4.5314 33.5577C5.43768 34.4515 6.57364 34.8985 7.94547 34.8985Z"
    fill="#FFB000" />
  <path
    d="M69.2821 25.8683V21.9142H57.0411V24.6268H65.7935V25.0614L56.7307 33.3482V37.2713H69.2821V34.5649H60.1882V34.1614L69.2821 25.8683Z"
    fill="#FFB000" />
  <path
    d="M74.3762 19.8207C73.7555 19.8207 73.2279 19.6158 72.8057 19.2124C72.3774 18.8089 72.1664 18.2812 72.1664 17.6419C72.1664 16.9963 72.3774 16.4749 72.8057 16.0714C73.2341 15.6679 73.7555 15.4631 74.3762 15.4631C75.0218 15.4631 75.5494 15.6679 75.9653 16.0714C76.3812 16.4749 76.586 17.0025 76.586 17.6419C76.586 18.2875 76.3812 18.8089 75.9653 19.2124C75.5494 19.622 75.0218 19.8207 74.3762 19.8207ZM72.7561 37.2635V21.9064H75.9653V37.2635H72.7561Z"
    fill="#FFB000" />
  <path
    d="M86.5805 37.7127C85.0224 37.7127 83.663 37.3837 82.5022 36.7319C81.3414 36.0801 80.4289 35.1552 79.7772 33.9572C79.1254 32.7654 78.7964 31.3749 78.7964 29.7983V29.4258C78.7964 27.8243 79.1192 26.4338 79.7647 25.2358C80.4103 24.044 81.3042 23.1191 82.4588 22.4611C83.6133 21.8093 84.9479 21.4803 86.4625 21.4803C87.9337 21.4803 89.231 21.8093 90.3422 22.4611C91.4533 23.1129 92.3223 24.0254 92.943 25.1862C93.5638 26.3469 93.8804 27.7064 93.8804 29.2644V30.4811H82.0739C82.1173 31.8281 82.5643 32.9082 83.4271 33.7027C84.2899 34.5035 85.3638 34.9007 86.6487 34.9007C87.853 34.9007 88.7593 34.6338 89.3738 34.0938C89.9883 33.5537 90.4601 32.933 90.7891 32.2254L93.4334 33.5972C93.1417 34.1807 92.7196 34.789 92.1733 35.4346C91.6209 36.0801 90.9008 36.6202 90.0069 37.0547C89.1131 37.4892 87.9709 37.7127 86.5805 37.7127ZM82.0925 28.0229H90.5967C90.516 26.8622 90.1001 25.9497 89.349 25.2979C88.6041 24.6461 87.6233 24.3171 86.4191 24.3171C85.2148 24.3171 84.2341 24.6461 83.4768 25.2979C82.7195 25.9497 82.2601 26.8622 82.0925 28.0229Z"
    fill="#FFB000" />
  <path d="M47.7477 16.9V5.96872L38.2752 0.5L28.8027 5.96872V16.9L38.2752 22.3687L47.7477 16.9Z"
    fill="#FFB000" />
  <path
    d="M30.7507 25.2709C30.0059 24.6191 29.0313 24.2901 27.8271 24.2901C26.6228 24.2901 25.6483 24.6191 24.891 25.2709C24.1337 25.9227 23.6743 26.8289 23.5067 27.9897H31.9922C31.9115 26.8289 31.5018 25.9227 30.7507 25.2709Z"
    fill="#FFB000" />
  <path
    d="M47.2692 37.66C45.7174 37.66 44.358 37.331 43.1972 36.6792C42.0364 36.0274 41.1301 35.1025 40.4783 33.9107C39.8266 32.7189 39.4976 31.3346 39.4976 29.7641V29.3917C39.4976 27.7964 39.8203 26.4059 40.4597 25.2141C41.0991 24.0223 41.9991 23.1036 43.1475 22.4456C44.2959 21.7938 45.6305 21.4649 47.1389 21.4649C48.61 21.4649 49.9012 21.7938 51.0061 22.4456C52.1172 23.0974 52.98 24.0037 53.6008 25.1645C54.2215 26.3252 54.5319 27.6847 54.5319 29.2365V30.447H42.7626C42.8061 31.794 43.253 32.8678 44.1159 33.6624C44.9725 34.4631 46.0464 34.8604 47.3313 34.8604C48.5355 34.8604 49.4418 34.5935 50.0501 34.0535C50.6585 33.5134 51.1302 32.8927 51.4654 32.1912L54.1098 33.5569C53.818 34.1342 53.4021 34.7487 52.8497 35.3881C52.3034 36.0274 51.5772 36.5675 50.6895 37.002C49.7956 37.4427 48.6597 37.66 47.2692 37.66ZM42.7937 27.995H51.2792C51.1985 26.8342 50.7826 25.928 50.0377 25.2762C49.2928 24.6244 48.3183 24.2954 47.114 24.2954C45.9098 24.2954 44.9352 24.6244 44.1779 25.2762C43.4206 25.928 42.9613 26.8342 42.7937 27.995Z"
    fill="#FFB000" />
  <path
    d="M27.7425 18.6189L18.27 24.0876V35.0251L24.3657 38.5447L26.7245 39.9103L27.7425 40.5L28.7543 39.9165L31.4545 38.346L37.2026 35.0251V24.0876L27.7425 18.6189ZM35.2659 30.444H23.4842C23.5277 31.791 23.9746 32.8649 24.8374 33.6594C25.6941 34.4602 26.7679 34.8575 28.0529 34.8575C29.2571 34.8575 30.1634 34.5844 30.7717 34.0505C31.3863 33.5105 31.8518 32.8897 32.187 32.1883L34.8252 33.5539C34.5334 34.1374 34.1175 34.7457 33.5651 35.3913C33.0126 36.0307 32.2925 36.5707 31.4049 37.0052C30.511 37.4398 29.3751 37.657 27.9846 37.657C26.4328 37.657 25.0733 37.3342 23.9125 36.6762C22.7518 36.0245 21.8455 35.0996 21.1937 33.9077C20.5419 32.7159 20.2129 31.3317 20.2129 29.7612V29.3888C20.2129 27.7935 20.5357 26.403 21.1751 25.205C21.8144 24.0132 22.7145 23.0944 23.8629 22.4365C25.0175 21.7847 26.3458 21.4557 27.8605 21.4557C29.3316 21.4557 30.6165 21.7785 31.7277 22.4365C32.8388 23.0882 33.7016 23.9945 34.3224 25.1553C34.9431 26.3161 35.2535 27.6755 35.2535 29.2274V30.444H35.2659Z"
    fill="#FFB000" />
</svg>