<svg width="32" height="24" viewBox="0 0 32 24" fill="none" xmlns="http://www.w3.org/2000/svg">
  <path
    d="M27.0579 1.99308C25.0634 1.06333 22.904 0.388502 20.6545 -0.00139586C20.6348 -0.0020266 20.6152 0.00167455 20.5971 0.00944743C20.5789 0.0172203 20.5627 0.0288762 20.5496 0.0435927C20.2796 0.538463 19.9647 1.18329 19.7548 1.67816C17.3689 1.31826 14.9425 1.31826 12.5567 1.67816C12.3467 1.1683 12.0318 0.538463 11.7469 0.0435927C11.7319 0.0136005 11.6869 -0.00139586 11.6419 -0.00139586C9.39249 0.388502 7.24805 1.06333 5.23858 1.99308C5.22358 1.99308 5.20859 2.00808 5.19359 2.02307C1.11466 8.12648 -0.0100456 14.0649 0.544809 19.9434C0.544809 19.9734 0.559805 20.0034 0.589797 20.0184C3.28909 21.9978 5.88341 23.1975 8.44774 23.9923C8.49273 24.0073 8.53772 23.9923 8.55271 23.9623C9.15256 23.1375 9.69241 22.2678 10.1573 21.353C10.1873 21.293 10.1573 21.233 10.0973 21.218C9.24253 20.8881 8.43274 20.4982 7.63795 20.0484C7.57797 20.0184 7.57797 19.9284 7.62296 19.8834C7.78791 19.7634 7.95287 19.6285 8.11783 19.5085C8.14782 19.4785 8.19281 19.4785 8.2228 19.4935C13.3814 21.8479 18.945 21.8479 24.0437 19.4935C24.0737 19.4785 24.1186 19.4785 24.1486 19.5085C24.3136 19.6435 24.4785 19.7634 24.6435 19.8984C24.7035 19.9434 24.7035 20.0334 24.6285 20.0634C23.8487 20.5282 23.0239 20.9031 22.1691 21.233C22.1092 21.248 22.0942 21.323 22.1092 21.368C22.589 22.2828 23.1289 23.1525 23.7137 23.9773C23.7587 23.9923 23.8037 24.0073 23.8487 23.9923C26.428 23.1975 29.0224 21.9978 31.7216 20.0184C31.7516 20.0034 31.7666 19.9734 31.7666 19.9434C32.4265 13.1502 30.6719 7.2567 27.1179 2.02307C27.1029 2.00808 27.0879 1.99308 27.0579 1.99308ZM10.9371 16.3593C9.39249 16.3593 8.10283 14.9347 8.10283 13.1802C8.10283 11.4256 9.3625 10.001 10.9371 10.001C12.5267 10.001 13.7863 11.4406 13.7713 13.1802C13.7713 14.9347 12.5117 16.3593 10.9371 16.3593ZM21.3894 16.3593C19.8448 16.3593 18.5551 14.9347 18.5551 13.1802C18.5551 11.4256 19.8148 10.001 21.3894 10.001C22.9789 10.001 24.2386 11.4406 24.2236 13.1802C24.2236 14.9347 22.9789 16.3593 21.3894 16.3593Z"
    fill="white" />
</svg>