<svg width="27" height="26" viewBox="0 0 27 26" fill="none" xmlns="http://www.w3.org/2000/svg">
  <path
    d="M1.4126 12.9985C1.4126 7.34211 1.4126 4.51264 3.16965 2.75559C4.9267 0.998535 7.75491 0.998535 13.4126 0.998535C19.069 0.998535 21.8985 0.998535 23.6555 2.75559C25.4126 4.51264 25.4126 7.34085 25.4126 12.9985C25.4126 18.655 25.4126 21.4844 23.6555 23.2415C21.8985 24.9985 19.0703 24.9985 13.4126 24.9985C7.75618 24.9985 4.9267 24.9985 3.16965 23.2415C1.4126 21.4844 1.4126 18.6562 1.4126 12.9985Z"
    stroke="white" stroke-width="1.5" stroke-linecap="round" stroke-linejoin="round" />
  <path
    d="M20.3701 6.05127H20.3574M19.0968 12.9986C19.0968 14.5062 18.4979 15.952 17.4319 17.018C16.366 18.084 14.9202 18.6828 13.4126 18.6828C11.9051 18.6828 10.4593 18.084 9.39326 17.018C8.32726 15.952 7.72839 14.5062 7.72839 12.9986C7.72839 11.4911 8.32726 10.0453 9.39326 8.97929C10.4593 7.9133 11.9051 7.31443 13.4126 7.31443C14.9202 7.31443 16.366 7.9133 17.4319 8.97929C18.4979 10.0453 19.0968 11.4911 19.0968 12.9986Z"
    stroke="white" stroke-width="1.5" stroke-linecap="round" stroke-linejoin="round" />
</svg>